<svg width="298" height="220" viewBox="0 0 298 220" fill="none" xmlns="http://www.w3.org/2000/svg">
<path d="M10.9719 172.8L3.37188 165.4V155.8L48.9719 67.2H72.5719L79.9719 74.8V152.8H97.1719V165.4L89.5719 172.8H79.9719V202H57.7719V172.8H10.9719ZM57.7719 101.8H54.9719L29.5719 152.8H57.7719V101.8ZM132.972 202C130.172 202 127.772 201.6 125.772 200.8C123.772 199.867 121.772 198.467 119.772 196.6L112.172 188.8C110.039 186.667 108.572 184.667 107.772 182.8C106.972 180.933 106.572 178.533 106.572 175.6V93.6C106.572 90.6667 106.972 88.2667 107.772 86.4C108.572 84.5333 110.039 82.5333 112.172 80.4L119.772 72.6C121.772 70.7333 123.772 69.4 125.772 68.6C127.772 67.6667 130.172 67.2 132.972 67.2H165.172C167.972 67.2 170.372 67.6667 172.372 68.6C174.372 69.4 176.372 70.7333 178.372 72.6L185.972 80.4C188.105 82.5333 189.572 84.5333 190.372 86.4C191.172 88.2667 191.572 90.6667 191.572 93.6V175.6C191.572 178.533 191.172 180.933 190.372 182.8C189.572 184.667 188.105 186.667 185.972 188.8L178.372 196.6C176.372 198.467 174.372 199.867 172.372 200.8C170.372 201.6 167.972 202 165.172 202H132.972ZM161.572 182C162.639 182 163.505 181.667 164.172 181L168.372 176.6C169.039 176.067 169.372 175.267 169.372 174.2V95C169.372 93.9333 169.039 93.1333 168.372 92.6L164.172 88.2C163.505 87.5333 162.639 87.2 161.572 87.2H136.572C135.505 87.2 134.639 87.5333 133.972 88.2L129.772 92.6C129.105 93.1333 128.772 93.9333 128.772 95V174.2C128.772 175.267 129.105 176.067 129.772 176.6L133.972 181C134.639 181.667 135.505 182 136.572 182H161.572ZM208.628 172.8L201.028 165.4V155.8L246.628 67.2H270.228L277.628 74.8V152.8H294.828V165.4L287.228 172.8H277.628V202H255.428V172.8H208.628ZM255.428 101.8H252.628L227.228 152.8H255.428V101.8Z" fill="#FF0022"/>
</svg>
