<svg width="25" height="25" viewBox="0 0 25 25" fill="none" xmlns="http://www.w3.org/2000/svg">
<path d="M5.70696 6.96037C5.31643 6.56985 5.31643 5.93668 5.70696 5.54616C6.09748 5.15564 6.73064 5.15564 7.12117 5.54616L19.8491 18.2741C20.2396 18.6646 20.2396 19.2978 19.8491 19.6883C19.4586 20.0788 18.8254 20.0788 18.4349 19.6883L5.70696 6.96037Z" fill="currentColor"/>
<path d="M5.70696 6.96037C5.31643 6.56985 5.31643 5.93668 5.70696 5.54616C6.09748 5.15564 6.73064 5.15564 7.12117 5.54616L19.8491 18.2741C20.2396 18.6646 20.2396 19.2978 19.8491 19.6883C19.4586 20.0788 18.8254 20.0788 18.4349 19.6883L5.70696 6.96037Z" fill="currentColor"/>
<path d="M18.435 4.83904C18.8255 4.44851 19.4586 4.44851 19.8492 4.83904C20.2397 5.22956 20.2397 5.86273 19.8492 6.25325L7.12125 18.9812C6.73072 19.3717 6.09756 19.3717 5.70703 18.9812C5.31651 18.5906 5.31651 17.9575 5.70703 17.567L18.435 4.83904Z" fill="currentColor"/>
<path d="M18.435 4.83904C18.8255 4.44851 19.4586 4.44851 19.8492 4.83904C20.2397 5.22956 20.2397 5.86273 19.8492 6.25325L7.12125 18.9812C6.73072 19.3717 6.09756 19.3717 5.70703 18.9812C5.31651 18.5906 5.31651 17.9575 5.70703 17.567L18.435 4.83904Z" fill="currentColor"/>
</svg>
