<svg width="170" height="37" viewBox="0 0 170 37" fill="none" xmlns="http://www.w3.org/2000/svg">
<path d="M2.54175 27.5002L0.952095 25.9106C0.238024 25.205 0 24.6099 0 23.5728V13.4908C0 12.4622 0.19552 11.9012 0.952095 11.1531L2.54175 9.56342C3.29833 8.80685 3.85089 8.61133 4.87949 8.61133H10.473C11.5017 8.61133 12.0967 8.89186 12.8108 9.56342L14.4004 11.1531C15.157 11.9097 15.3525 12.4622 15.3525 13.4908V18.8463L14.4004 19.8409H3.40884V23.3348C3.40884 23.6153 3.52785 23.8874 3.76588 24.0914L4.71797 25.0435C4.87949 25.239 5.19402 25.4005 5.50855 25.4005H9.83549C10.15 25.4005 10.4305 25.239 10.6261 25.0435L11.8927 23.8108L14.1964 26.0721L12.8108 27.5002C12.0967 28.1718 11.5017 28.4523 10.473 28.4523H4.87949C3.85089 28.4523 3.25583 28.2143 2.54175 27.5002ZM11.9437 16.7891V13.7373C11.9437 13.4568 11.8247 13.1848 11.5867 12.9808L10.6346 12.0287C10.439 11.8331 10.1585 11.6716 9.84399 11.6716H5.51705C5.20252 11.6716 4.92199 11.8331 4.72647 12.0287L3.77438 12.9808C3.53635 13.1763 3.41734 13.4568 3.41734 13.7373V16.7891H11.9437Z" fill="#FF0022"/>
<path d="M20.5378 27.5002L18.9482 25.9106C18.2341 25.1965 17.9961 24.6015 17.9961 23.5729V13.6949C17.9961 12.6663 18.2341 12.1052 18.9907 11.3571L20.7759 9.57196C21.4899 8.90039 22.0425 8.61986 23.0796 8.61986H30.0248V0H32.5241L33.4336 0.952095V28.4523H30.3393L30.1013 27.0667L28.2396 27.9423C27.449 28.3418 26.8115 28.4608 25.9784 28.4608H22.8416C21.847 28.4523 21.2519 28.1803 20.5378 27.5002ZM25.9784 25.358C26.2164 25.358 26.4544 25.3155 26.65 25.239L30.0248 23.6154V11.6717H23.7172C23.4366 11.6717 23.1221 11.7907 22.9266 11.9862L21.779 13.1763C21.541 13.3718 21.4219 13.6524 21.4219 13.9329V23.3773C21.4219 23.6154 21.541 23.8959 21.779 24.0914L22.7311 25.086C22.9266 25.2815 23.2071 25.3665 23.5216 25.3665H25.9784V25.358Z" fill="#FF0022"/>
<path d="M37.7098 34.6834V32.4987H46.4402C46.7207 32.4987 47.0353 32.4222 47.1968 32.2182L48.3869 31.0706C48.5824 30.875 48.7014 30.5945 48.7014 30.314V26.5056L45.5646 27.9763C44.8505 28.2908 44.298 28.4523 43.4989 28.4523H41.3992C40.4046 28.4523 39.852 28.2143 39.0955 27.5002L37.5483 25.9106C36.7577 25.12 36.5537 24.2019 36.5537 23.2498V13.4568C36.5537 12.5047 36.7917 11.8672 37.5483 11.1531L39.0955 9.56342C39.8095 8.89186 40.4046 8.61133 41.3992 8.61133H47.2733C48.2679 8.61133 48.8204 8.84935 49.577 9.56342L51.1242 11.1531C51.8807 11.8672 52.1188 12.4622 52.1188 13.4908V30.552C52.1188 31.5806 51.8807 32.1417 51.2092 32.8557L49.3815 34.6409C48.6249 35.4315 48.0299 35.593 47.0438 35.593H38.7469L37.7098 34.6834ZM43.4309 25.358C43.6689 25.358 43.8644 25.3155 44.026 25.239L48.7099 23.0543V13.6948C48.7099 13.4568 48.5909 13.1763 48.3529 12.9808L47.4008 11.9862C47.2053 11.7906 46.9247 11.6716 46.6102 11.6716H42.0793C41.7647 11.6716 41.4842 11.7906 41.2887 11.9862L40.3366 12.9808C40.0986 13.1763 39.9796 13.4568 39.9796 13.6948V23.3348C39.9796 23.6153 40.0986 23.8874 40.3366 24.0914L41.2887 25.0435C41.4842 25.239 41.7647 25.358 42.0793 25.358H43.4309V25.358Z" fill="#FF0022"/>
<path d="M56.9811 33.4933C59.8799 33.0173 60.7895 31.6656 61.4271 29.8805L61.9456 28.4523H60.6365L54.0483 9.3254L55.553 8.61133H57.3807L62.5832 24.6014H63.4928L68.7718 8.61133H70.6335L72.1042 9.3254L65.3205 29.0899C63.9688 33.1023 61.6311 35.678 57.4657 36.2731L56.9811 33.4933Z" fill="#FF0022"/>
<path d="M72.1382 24.1255H76.5416V28.4524H72.1382V24.1255Z" fill="#222222"/>
<path d="M82.3137 27.5002L80.7241 25.9106C80.01 25.1965 79.772 24.6015 79.772 23.5729V13.6949C79.772 12.6663 80.01 12.1052 80.7666 11.3571L82.5517 9.57196C83.2658 8.90039 83.8184 8.61986 84.8555 8.61986H91.8007V0H94.2999L95.2095 0.952095V28.4523H92.1152L91.8772 27.0667L90.0155 27.9423C89.2249 28.3418 88.5874 28.4608 87.7543 28.4608H84.6175C83.6229 28.4523 83.0278 28.1803 82.3137 27.5002ZM87.7543 25.358C87.9923 25.358 88.2303 25.3155 88.4258 25.239L91.8007 23.6154V11.6717H85.493C85.2125 11.6717 84.898 11.7907 84.7025 11.9862L83.5549 13.1763C83.3168 13.3718 83.1978 13.6524 83.1978 13.9329V23.3773C83.1978 23.6154 83.3168 23.8959 83.5549 24.0914L84.5069 25.086C84.7025 25.2815 84.983 25.3665 85.2975 25.3665H87.7543V25.358Z" fill="#222222"/>
<path d="M98.7031 1.11365H102.392V4.88802H98.7031V1.11365ZM98.8646 8.6114H102.239V28.4524H98.8646V8.6114Z" fill="#222222"/>
<path d="M106.431 34.6834V32.4987H115.161C115.441 32.4987 115.756 32.4222 115.917 32.2182L117.108 31.0706C117.303 30.875 117.422 30.5945 117.422 30.314V26.5056L114.285 27.9763C113.571 28.2908 113.019 28.4523 112.22 28.4523H110.12C109.125 28.4523 108.573 28.2143 107.816 27.5002L106.269 25.9106C105.478 25.12 105.274 24.2019 105.274 23.2498V13.4568C105.274 12.5047 105.512 11.8672 106.269 11.1531L107.816 9.56342C108.53 8.89186 109.125 8.61133 110.12 8.61133H115.994C116.989 8.61133 117.541 8.84935 118.298 9.56342L119.845 11.1531C120.601 11.8672 120.839 12.4622 120.839 13.4908V30.552C120.839 31.5806 120.601 32.1417 119.93 32.8557L118.102 34.6409C117.346 35.4315 116.751 35.593 115.764 35.593H107.468L106.431 34.6834ZM112.152 25.358C112.39 25.358 112.585 25.3155 112.747 25.239L117.431 23.0543V13.6948C117.431 13.4568 117.312 13.1763 117.074 12.9808L116.122 11.9862C115.926 11.7906 115.645 11.6716 115.331 11.6716H110.808C110.494 11.6716 110.213 11.7906 110.018 11.9862L109.066 12.9808C108.828 13.1763 108.709 13.4568 108.709 13.6948V23.3348C108.709 23.6153 108.828 23.8874 109.066 24.0914L110.018 25.0435C110.213 25.239 110.494 25.358 110.808 25.358H112.152V25.358Z" fill="#222222"/>
<path d="M124.163 1.11365H127.852V4.88802H124.163V1.11365ZM124.325 8.6114H127.699V28.4524H124.325V8.6114Z" fill="#222222"/>
<path d="M135.878 27.5002L134.288 25.9106C133.574 25.1965 133.336 24.6014 133.336 23.5728V11.6716H130.284V9.57194L131.236 8.61984H133.336V4.04639H136.745V8.61134H141.072V11.6631H136.745V23.3773C136.745 23.6153 136.864 23.8959 137.059 24.0914L138.054 25.086C138.215 25.2475 138.53 25.4005 138.845 25.4005H141.063V27.5002L140.111 28.4523H138.207C137.187 28.4523 136.592 28.2568 135.878 27.5002Z" fill="#222222"/>
<path d="M146.18 27.5002L144.591 25.9106C143.834 25.154 143.639 24.6014 143.639 23.5728V21.3881C143.639 20.3595 143.877 19.7984 144.633 19.0504L146.418 17.2652C147.133 16.5511 147.685 16.3131 148.722 16.3131H155.667V13.8904C155.667 13.6523 155.591 13.3378 155.353 13.1338L154.205 12.0202C154.044 11.8246 153.729 11.6631 153.415 11.6631H144.727V9.56342L145.721 8.61133H154.052C155.081 8.61133 155.642 8.84935 156.39 9.56342L158.133 11.3486C158.889 12.0627 159.085 12.6577 159.085 13.6863V28.4523H155.99L155.752 27.0667L153.891 27.9423C153.1 28.2993 152.505 28.4608 151.629 28.4608H148.493C147.49 28.4523 146.929 28.2143 146.18 27.5002ZM151.612 25.4005C151.851 25.4005 152.089 25.324 152.284 25.239L155.659 23.6153V19.3649H149.351C149.071 19.3649 148.756 19.4839 148.561 19.6794L147.413 20.8696C147.175 21.0651 147.056 21.3456 147.056 21.6261V23.3348C147.056 23.6153 147.175 23.8874 147.413 24.0914L148.365 25.0435C148.561 25.239 148.841 25.4005 149.156 25.4005H151.612V25.4005Z" fill="#222222"/>
<path d="M164.883 27.5002L163.454 26.0721C162.621 25.239 162.341 24.644 162.341 23.5729V0.952095L163.335 0H165.758V23.3348C165.758 23.6154 165.877 23.8874 166.073 24.0914L167.067 25.086C167.229 25.2475 167.543 25.4005 167.858 25.4005H170V28.4523H167.186C166.192 28.4523 165.639 28.2143 164.883 27.5002Z" fill="#222222"/>
</svg>
